<?xml version="1.0" encoding="UTF-8" standalone="no"?>
<svg
   xmlns:dc="http://purl.org/dc/elements/1.1/"
   xmlns:cc="http://creativecommons.org/ns#"
   xmlns:rdf="http://www.w3.org/1999/02/22-rdf-syntax-ns#"
   xmlns:svg="http://www.w3.org/2000/svg"
   xmlns="http://www.w3.org/2000/svg"
   xmlns:sodipodi="http://sodipodi.sourceforge.net/DTD/sodipodi-0.dtd"
   xmlns:inkscape="http://www.inkscape.org/namespaces/inkscape"
   id="svg224"
   version="1.1"
   viewBox="406 483 529.13385 259.63438"
   height="68.694931mm"
   width="140mm"
   sodipodi:docname="fb_block_diagram.svg"
   inkscape:version="0.92.4 (5da689c313, 2019-01-14)">
  <sodipodi:namedview
     pagecolor="#ffffff"
     bordercolor="#666666"
     borderopacity="1"
     objecttolerance="10"
     gridtolerance="10"
     guidetolerance="10"
     inkscape:pageopacity="0"
     inkscape:pageshadow="2"
     inkscape:window-width="640"
     inkscape:window-height="480"
     id="namedview122"
     showgrid="false"
     inkscape:zoom="0.86597889"
     inkscape:cx="264.56693"
     inkscape:cy="129.81719"
     inkscape:window-x="0"
     inkscape:window-y="33"
     inkscape:window-maximized="0"
     inkscape:current-layer="svg224" />
  <metadata
     id="metadata230">
    <rdf:RDF>
      <cc:Work
         rdf:about="">
        <dc:format>image/svg+xml</dc:format>
        <dc:type
           rdf:resource="http://purl.org/dc/dcmitype/StillImage" />
        <dc:title></dc:title>
        <cc:license
           rdf:resource="http://creativecommons.org/publicdomain/zero/1.0/" />
      </cc:Work>
      <cc:License
         rdf:about="http://creativecommons.org/publicdomain/zero/1.0/">
        <cc:permits
           rdf:resource="http://creativecommons.org/ns#Reproduction" />
        <cc:permits
           rdf:resource="http://creativecommons.org/ns#Distribution" />
        <cc:permits
           rdf:resource="http://creativecommons.org/ns#DerivativeWorks" />
      </cc:License>
    </rdf:RDF>
  </metadata>
  <defs
     id="defs228">
    <defs
       id="defs17">
      <clipPath
         id="cp0">
        <path
           style="clip-rule:evenodd"
           d="M 406,483 H 6132 V 2678 H 406 Z m 3058,1242 v 60 l 143,-23 v -14 z"
           id="path14" />
      </clipPath>
    </defs>
    <defs
       id="defs28">
      <clipPath
         id="cp1">
        <path
           style="clip-rule:evenodd"
           d="M 406,483 H 6132 V 2678 H 406 Z m 2759,1498 h 60 l -23,-143 h -14 z"
           id="path25" />
      </clipPath>
    </defs>
    <defs
       id="defs37">
      <clipPath
         id="cp2">
        <path
           style="clip-rule:evenodd"
           d="M 406,483 H 6132 V 2678 H 406 Z m 2174,1903 h 60 l -23,-143 h -14 z"
           id="path34" />
      </clipPath>
    </defs>
    <defs
       id="defs46">
      <clipPath
         id="cp3">
        <path
           style="clip-rule:evenodd"
           d="M 406,483 H 6132 V 2678 H 406 Z m 2563,1242 v 60 l 143,-23 v -14 z"
           id="path43" />
      </clipPath>
    </defs>
    <defs
       id="defs55">
      <clipPath
         id="cp4">
        <path
           style="clip-rule:evenodd"
           d="M 406,483 H 6132 V 2678 H 406 Z m 1168,1107 v 60 l 143,-23 v -14 z"
           id="path52" />
      </clipPath>
    </defs>
    <defs
       id="defs66">
      <clipPath
         id="cp5">
        <path
           style="clip-rule:evenodd"
           d="M 406,483 H 6132 V 2678 H 406 Z m 1168,1377 v 60 l 143,-23 v -14 z"
           id="path63" />
      </clipPath>
    </defs>
    <defs
       id="defs75">
      <clipPath
         id="cp6">
        <path
           style="clip-rule:evenodd"
           d="M 406,483 H 6132 V 2678 H 406 Z m 824,1543 h 60 l -23,-143 h -14 z"
           id="path72" />
      </clipPath>
    </defs>
    <defs
       id="defs84">
      <clipPath
         id="cp7">
        <path
           style="clip-rule:evenodd"
           d="M 406,483 H 6132 V 2678 H 406 Z m 1168,612 v 60 l 143,-23 v -14 z"
           id="path81" />
      </clipPath>
    </defs>
    <defs
       id="defs93">
      <clipPath
         id="cp8">
        <path
           style="clip-rule:evenodd"
           d="M 406,483 H 6132 V 2678 H 406 Z m 4678,927 v 60 l 143,-23 v -14 z"
           id="path90" />
      </clipPath>
    </defs>
    <defs
       id="defs104">
      <clipPath
         id="cp9">
        <path
           style="clip-rule:evenodd"
           d="M 406,483 H 6132 V 2678 H 406 Z m 3584,866 h -60 l 23,143 h 14 z"
           id="path101" />
      </clipPath>
    </defs>
    <defs
       id="defs113">
      <clipPath
         id="cp10">
        <path
           style="clip-rule:evenodd"
           d="M 406,483 H 6132 V 2678 H 406 Z m 3854,866 h -60 l 23,143 h 14 z"
           id="path110" />
      </clipPath>
    </defs>
    <defs
       id="defs124">
      <clipPath
         id="cp11">
        <path
           style="clip-rule:evenodd"
           d="M 406,483 H 6132 V 2678 H 406 Z m 2174,148 h 60 l -23,-143 h -14 z"
           id="path121" />
      </clipPath>
    </defs>
    <defs
       id="defs133">
      <clipPath
         id="cp12">
        <path
           style="clip-rule:evenodd"
           d="M 406,483 H 6132 V 2678 H 406 Z m 4678,1242 v 60 l 143,-23 v -14 z"
           id="path130" />
      </clipPath>
    </defs>
    <defs
       id="defs162">
      <clipPath
         id="cp13">
        <path
           style="clip-rule:evenodd"
           d="M 406,483 H 6132 V 2678 H 406 Z m 3193,297 v 60 l 143,-23 v -14 z"
           id="path159" />
      </clipPath>
    </defs>
  </defs>
  <circle
     cx="663.54608"
     cy="627.16541"
     r="7.5738206"
     id="circle2"
     style="fill:none;stroke:#000000;stroke-width:0.6732285px" />
  <polyline
     transform="matrix(0.08415356,0,0,0.08415356,394.67546,479.47588)"
     points=" 3195,1710 3195,1800"
     id="polyline4"
     style="fill:none;stroke:#000000;stroke-width:8px" />
  <polyline
     transform="matrix(0.08415356,0,0,0.08415356,394.67546,479.47588)"
     points=" 3150,1755 3240,1755"
     id="polyline6"
     style="fill:none;stroke:#000000;stroke-width:8px" />
  <circle
     cx="614.31622"
     cy="702.90356"
     r="1.9355319"
     id="circle8"
     style="fill:#000000;stroke-width:0.08415356" />
  <circle
     cx="803.66174"
     cy="627.16541"
     r="1.9355319"
     id="circle10"
     style="fill:#000000;stroke-width:0.08415356" />
  <circle
     cx="614.31622"
     cy="574.14862"
     r="1.9355319"
     id="circle12"
     style="fill:#000000;stroke-width:0.08415356" />
  <polyline
     transform="matrix(0.08415356,0,0,0.08415356,394.67546,479.47588)"
     points=" 3285,1755 3600,1755"
     clip-path="url(#cp0)"
     id="polyline19"
     style="fill:none;stroke:#000000;stroke-width:8px" />
  <polygon
     transform="matrix(0.08415356,0,0,0.08415356,394.67546,479.47588)"
     points="3464,1785 3584,1755 3464,1725 "
     stroke-miterlimit="8"
     id="polygon21"
     style="fill:#000000;stroke:#000000;stroke-width:8px;stroke-miterlimit:8" />
  <rect
     x="595.38171"
     y="668.82141"
     width="3.7869103"
     height="11.36073"
     id="rect23"
     style="fill:none;stroke:#000000;stroke-width:0.6732285px" />
  <polyline
     transform="matrix(0.08415356,0,0,0.08415356,394.67546,479.47588)"
     points=" 2475,2250 2520,2295 2565,2250 3195,2250 3195,1845"
     clip-path="url(#cp1)"
     id="polyline30"
     style="fill:none;stroke:#000000;stroke-width:8px" />
  <polygon
     transform="matrix(0.08415356,0,0,0.08415356,394.67546,479.47588)"
     points="3225,1981 3195,1861 3165,1981 "
     stroke-miterlimit="8"
     id="polygon32"
     style="fill:#000000;stroke:#000000;stroke-width:8px;stroke-miterlimit:8" />
  <polyline
     transform="matrix(0.08415356,0,0,0.08415356,394.67546,479.47588)"
     points=" 4860,1755 4860,2655 2610,2655 2610,2250"
     clip-path="url(#cp2)"
     id="polyline39"
     style="fill:none;stroke:#000000;stroke-width:8px" />
  <polygon
     transform="matrix(0.08415356,0,0,0.08415356,394.67546,479.47588)"
     points="2640,2386 2610,2266 2580,2386 "
     stroke-miterlimit="8"
     id="polygon41"
     style="fill:#000000;stroke:#000000;stroke-width:8px;stroke-miterlimit:8" />
  <polyline
     transform="matrix(0.08415356,0,0,0.08415356,394.67546,479.47588)"
     points=" 2430,1755 3105,1755"
     clip-path="url(#cp3)"
     id="polyline48"
     style="fill:none;stroke:#000000;stroke-width:8px" />
  <polygon
     transform="matrix(0.08415356,0,0,0.08415356,394.67546,479.47588)"
     points="2969,1785 3089,1755 2969,1725 "
     stroke-miterlimit="8"
     id="polygon50"
     style="fill:#000000;stroke:#000000;stroke-width:8px;stroke-miterlimit:8" />
  <polyline
     transform="matrix(0.08415356,0,0,0.08415356,394.67546,479.47588)"
     points=" 1305,1620 1710,1620"
     clip-path="url(#cp4)"
     id="polyline57"
     style="fill:none;stroke:#000000;stroke-width:8px" />
  <polygon
     transform="matrix(0.08415356,0,0,0.08415356,394.67546,479.47588)"
     points="1574,1650 1694,1620 1574,1590 "
     stroke-miterlimit="8"
     id="polygon59"
     style="fill:#000000;stroke:#000000;stroke-width:8px;stroke-miterlimit:8" />
  <rect
     x="481.77438"
     y="638.52612"
     width="3.7869103"
     height="11.36073"
     id="rect61"
     style="fill:none;stroke:#000000;stroke-width:0.6732285px" />
  <polyline
     transform="matrix(0.08415356,0,0,0.08415356,394.67546,479.47588)"
     points=" 1125,1890 1170,1935 1215,1890 1710,1890"
     clip-path="url(#cp5)"
     id="polyline68"
     style="fill:none;stroke:#000000;stroke-width:8px" />
  <polygon
     transform="matrix(0.08415356,0,0,0.08415356,394.67546,479.47588)"
     points="1574,1920 1694,1890 1574,1860 "
     stroke-miterlimit="8"
     id="polygon70"
     style="fill:#000000;stroke:#000000;stroke-width:8px;stroke-miterlimit:8" />
  <polyline
     transform="matrix(0.08415356,0,0,0.08415356,394.67546,479.47588)"
     points=" 2610,2655 1260,2655 1260,1890"
     clip-path="url(#cp6)"
     id="polyline77"
     style="fill:none;stroke:#000000;stroke-width:8px" />
  <polygon
     transform="matrix(0.08415356,0,0,0.08415356,394.67546,479.47588)"
     points="1290,2026 1260,1906 1230,2026 "
     stroke-miterlimit="8"
     id="polygon79"
     style="fill:#000000;stroke:#000000;stroke-width:8px;stroke-miterlimit:8" />
  <polyline
     transform="matrix(0.08415356,0,0,0.08415356,394.67546,479.47588)"
     points=" 1305,1125 1710,1125"
     clip-path="url(#cp7)"
     id="polyline86"
     style="fill:none;stroke:#000000;stroke-width:8px" />
  <polygon
     transform="matrix(0.08415356,0,0,0.08415356,394.67546,479.47588)"
     points="1574,1155 1694,1125 1574,1095 "
     stroke-miterlimit="8"
     id="polygon88"
     style="fill:#000000;stroke:#000000;stroke-width:8px;stroke-miterlimit:8" />
  <polyline
     transform="matrix(0.08415356,0,0,0.08415356,394.67546,479.47588)"
     points=" 4860,1755 4860,1440 5220,1440"
     clip-path="url(#cp8)"
     id="polyline95"
     style="fill:none;stroke:#000000;stroke-width:8px" />
  <polygon
     transform="matrix(0.08415356,0,0,0.08415356,394.67546,479.47588)"
     points="5084,1470 5204,1440 5084,1410 "
     stroke-miterlimit="8"
     id="polygon97"
     style="fill:#000000;stroke:#000000;stroke-width:8px;stroke-miterlimit:8" />
  <rect
     x="697.6283"
     y="604.44391"
     width="83.312027"
     height="45.442921"
     id="rect99"
     style="fill:none;stroke:#000000;stroke-width:0.6732285px" />
  <polyline
     transform="matrix(0.08415356,0,0,0.08415356,394.67546,479.47588)"
     points=" 3960,1080 3960,1485"
     clip-path="url(#cp9)"
     id="polyline106"
     style="fill:none;stroke:#000000;stroke-width:8px" />
  <polygon
     transform="matrix(0.08415356,0,0,0.08415356,394.67546,479.47588)"
     points="3930,1349 3960,1469 3990,1349 "
     stroke-miterlimit="8"
     id="polygon108"
     style="fill:#000000;stroke:#000000;stroke-width:8px;stroke-miterlimit:8" />
  <polyline
     transform="matrix(0.08415356,0,0,0.08415356,394.67546,479.47588)"
     points=" 4230,1080 4230,1485"
     clip-path="url(#cp10)"
     id="polyline115"
     style="fill:none;stroke:#000000;stroke-width:8px" />
  <polygon
     transform="matrix(0.08415356,0,0,0.08415356,394.67546,479.47588)"
     points="4200,1349 4230,1469 4260,1349 "
     stroke-miterlimit="8"
     id="polygon117"
     style="fill:#000000;stroke:#000000;stroke-width:8px;stroke-miterlimit:8" />
  <rect
     x="708.98901"
     y="524.91882"
     width="60.590565"
     height="45.442921"
     id="rect119"
     style="fill:none;stroke:#000000;stroke-width:0.6732285px" />
  <polyline
     transform="matrix(0.08415356,0,0,0.08415356,394.67546,479.47588)"
     points=" 2430,1125 2610,1125 2610,495"
     clip-path="url(#cp11)"
     id="polyline126"
     style="fill:none;stroke:#000000;stroke-width:8px" />
  <polygon
     transform="matrix(0.08415356,0,0,0.08415356,394.67546,479.47588)"
     points="2640,631 2610,511 2580,631 "
     stroke-miterlimit="8"
     id="polygon128"
     style="fill:#000000;stroke:#000000;stroke-width:8px;stroke-miterlimit:8" />
  <polyline
     transform="matrix(0.08415356,0,0,0.08415356,394.67546,479.47588)"
     points=" 4590,1755 5220,1755"
     clip-path="url(#cp12)"
     id="polyline135"
     style="fill:none;stroke:#000000;stroke-width:8px" />
  <polygon
     transform="matrix(0.08415356,0,0,0.08415356,394.67546,479.47588)"
     points="5084,1785 5204,1755 5084,1725 "
     stroke-miterlimit="8"
     id="polygon137"
     style="fill:#000000;stroke:#000000;stroke-width:8px;stroke-miterlimit:8" />
  <polyline
     transform="matrix(0.08415356,0,0,0.08415356,394.67546,479.47588)"
     points=" 5130,1440 5355,1440 5400,1485 5445,1440"
     id="polyline139"
     style="fill:none;stroke:#000000;stroke-width:8px" />
  <polyline
     transform="matrix(0.08415356,0,0,0.08415356,394.67546,479.47588)"
     points=" 5130,1755 5355,1755 5400,1800 5445,1755"
     id="polyline141"
     style="fill:none;stroke:#000000;stroke-width:8px" />
  <rect
     x="856.67853"
     y="600.65698"
     width="3.7869103"
     height="11.36073"
     id="rect143"
     style="fill:none;stroke:#000000;stroke-width:0.6732285px" />
  <rect
     x="856.67853"
     y="627.16541"
     width="3.7869103"
     height="11.36073"
     id="rect145"
     style="fill:none;stroke:#000000;stroke-width:0.6732285px" />
  <polyline
     transform="matrix(0.08415356,0,0,0.08415356,394.67546,479.47588)"
     points=" 3735,1260 3780,1260 3780,1170 3870,1170 3870,1260 3915,1260"
     id="polyline147"
     style="fill:none;stroke:#000000;stroke-width:8px" />
  <polyline
     transform="matrix(0.08415356,0,0,0.08415356,394.67546,479.47588)"
     points=" 4275,1170 4320,1170 4320,1260 4410,1260 4410,1170 4455,1170"
     id="polyline149"
     style="fill:none;stroke:#000000;stroke-width:8px" />
  <polyline
     transform="matrix(0.08415356,0,0,0.08415356,394.67546,479.47588)"
     points=" 3420,675 3465,675 3465,585 3510,585 3510,675 3555,675 3555,585 3600,585 3600,675 "
     id="polyline151"
     style="fill:none;stroke:#000000;stroke-width:8px" />
  <rect
     x="538.57806"
     y="604.44391"
     width="60.590565"
     height="45.442921"
     id="rect153"
     style="fill:none;stroke:#000000;stroke-width:0.6732285px" />
  <rect
     x="538.57806"
     y="551.42719"
     width="60.590565"
     height="45.442921"
     id="rect155"
     style="fill:none;stroke:#000000;stroke-width:0.6732285px" />
  <rect
     x="595.38171"
     y="521.1319"
     width="3.7869103"
     height="11.36073"
     id="rect157"
     style="fill:none;stroke:#000000;stroke-width:0.6732285px" />
  <polyline
     transform="matrix(0.08415356,0,0,0.08415356,394.67546,479.47588)"
     points=" 2475,495 2520,540 2565,495 3330,495 3330,810 3735,810"
     clip-path="url(#cp13)"
     id="polyline164"
     style="fill:none;stroke:#000000;stroke-width:8px" />
  <polygon
     transform="matrix(0.08415356,0,0,0.08415356,394.67546,479.47588)"
     points="3599,840 3719,810 3599,780 "
     stroke-miterlimit="8"
     id="polygon166"
     style="fill:#000000;stroke:#000000;stroke-width:8px;stroke-miterlimit:8" />
  <polyline
     transform="matrix(0.08415356,0,0,0.08415356,394.67546,479.47588)"
     points=" 2610,1125 2835,1125 2880,1170 2925,1125"
     id="polyline168"
     style="fill:none;stroke:#000000;stroke-width:8px" />
  <rect
     x="644.61151"
     y="574.14862"
     width="3.7869103"
     height="11.36073"
     id="rect170"
     style="fill:none;stroke:#000000;stroke-width:0.6732285px" />
  <text
     xml:space="preserve"
     x="739.2843"
     y="638.52612"
     font-style="normal"
     font-weight="normal"
     font-size="120"
     id="text172"
     style="font-style:normal;font-variant:normal;font-weight:normal;font-stretch:normal;font-size:10.09843922px;font-family:'Berthold Imago';-inkscape-font-specification:'Berthold Imago, Normal';font-variant-ligatures:normal;font-variant-caps:normal;font-variant-numeric:normal;font-feature-settings:normal;text-align:center;writing-mode:lr-tb;text-anchor:middle;fill:#000000;stroke-width:0.08415356">4096 stage</text>
  <text
     xml:space="preserve"
     x="739.2843"
     y="623.37848"
     font-style="normal"
     font-weight="normal"
     font-size="120"
     id="text174"
     style="font-style:normal;font-variant:normal;font-weight:normal;font-stretch:normal;font-size:10.09843922px;font-family:'Berthold Imago';-inkscape-font-specification:'Berthold Imago, Normal';font-variant-ligatures:normal;font-variant-caps:normal;font-variant-numeric:normal;font-feature-settings:normal;text-align:center;writing-mode:lr-tb;text-anchor:middle;fill:#000000;stroke-width:0.08415356">BBD</text>
  <text
     xml:space="preserve"
     x="739.2843"
     y="543.85333"
     font-style="normal"
     font-weight="normal"
     font-size="120"
     id="text176"
     style="font-style:normal;font-variant:normal;font-weight:normal;font-stretch:normal;font-size:10.09843922px;font-family:'Berthold Imago';-inkscape-font-specification:'Berthold Imago, Normal';font-variant-ligatures:normal;font-variant-caps:normal;font-variant-numeric:normal;font-feature-settings:normal;text-align:center;writing-mode:lr-tb;text-anchor:middle;fill:#000000;stroke-width:0.08415356">2phase</text>
  <text
     xml:space="preserve"
     x="474.20056"
     y="647.88464"
     font-style="normal"
     font-weight="normal"
     font-size="120"
     id="text178"
     style="font-style:normal;font-variant:normal;font-weight:normal;font-stretch:normal;font-size:10.09843922px;font-family:'Berthold Imago';-inkscape-font-specification:'Berthold Imago, Normal';font-variant-ligatures:normal;font-variant-caps:normal;font-variant-numeric:normal;font-feature-settings:normal;text-align:end;writing-mode:lr-tb;text-anchor:end;fill:#000000;stroke-width:0.08415356">Input A</text>
  <text
     xml:space="preserve"
     x="587.80786"
     y="678.17993"
     font-style="normal"
     font-weight="normal"
     font-size="120"
     id="text180"
     style="font-style:normal;font-variant:normal;font-weight:normal;font-stretch:normal;font-size:10.09843922px;font-family:'Berthold Imago';-inkscape-font-specification:'Berthold Imago, Normal';font-variant-ligatures:normal;font-variant-caps:normal;font-variant-numeric:normal;font-feature-settings:normal;text-align:end;writing-mode:lr-tb;text-anchor:end;fill:#000000;stroke-width:0.08415356">Input B</text>
  <text
     xml:space="preserve"
     x="868.03925"
     y="610.01556"
     font-style="normal"
     font-weight="normal"
     font-size="120"
     id="text182"
     style="font-style:normal;font-variant:normal;font-weight:normal;font-stretch:normal;font-size:10.09843922px;font-family:'Berthold Imago';-inkscape-font-specification:'Berthold Imago, Normal';font-variant-ligatures:normal;font-variant-caps:normal;font-variant-numeric:normal;font-feature-settings:normal;text-align:start;writing-mode:lr-tb;text-anchor:start;fill:#000000;stroke-width:0.08415356">Output</text>
  <text
     xml:space="preserve"
     x="868.03925"
     y="636.52393"
     font-style="normal"
     font-weight="normal"
     font-size="120"
     id="text184"
     style="font-style:normal;font-variant:normal;font-weight:normal;font-stretch:normal;font-size:10.09843922px;font-family:'Berthold Imago';-inkscape-font-specification:'Berthold Imago, Normal';font-variant-ligatures:normal;font-variant-caps:normal;font-variant-numeric:normal;font-feature-settings:normal;text-align:start;writing-mode:lr-tb;text-anchor:start;fill:#000000;stroke-width:0.08415356">Output</text>
  <text
     xml:space="preserve"
     x="621.89008"
     y="612.01776"
     font-style="normal"
     font-weight="normal"
     font-size="120"
     id="text186"
     style="font-style:normal;font-variant:normal;font-weight:normal;font-stretch:normal;font-size:10.09843922px;font-family:'Berthold Imago';-inkscape-font-specification:'Berthold Imago, Normal';font-variant-ligatures:normal;font-variant-caps:normal;font-variant-numeric:normal;font-feature-settings:normal;text-align:center;writing-mode:lr-tb;text-anchor:middle;fill:#000000;stroke-width:0.08415356">Level</text>
  <text
     xml:space="preserve"
     x="640.82465"
     y="691.54285"
     font-style="normal"
     font-weight="normal"
     font-size="120"
     id="text188"
     style="font-style:normal;font-variant:normal;font-weight:normal;font-stretch:normal;font-size:10.09843922px;font-family:'Berthold Imago';-inkscape-font-specification:'Berthold Imago, Normal';font-variant-ligatures:normal;font-variant-caps:normal;font-variant-numeric:normal;font-feature-settings:normal;text-align:center;writing-mode:lr-tb;text-anchor:middle;fill:#000000;stroke-width:0.08415356">Level</text>
  <text
     xml:space="preserve"
     x="739.2843"
     y="559.00098"
     font-style="normal"
     font-weight="normal"
     font-size="120"
     id="text190"
     style="font-style:normal;font-variant:normal;font-weight:normal;font-stretch:normal;font-size:10.09843922px;font-family:'Berthold Imago';-inkscape-font-specification:'Berthold Imago, Normal';font-variant-ligatures:normal;font-variant-caps:normal;font-variant-numeric:normal;font-feature-settings:normal;text-align:center;writing-mode:lr-tb;text-anchor:middle;fill:#000000;stroke-width:0.08415356">Shaper</text>
  <text
     xml:space="preserve"
     x="504.49585"
     y="604.44391"
     font-style="normal"
     font-weight="normal"
     font-size="120"
     id="text192"
     style="font-style:normal;font-variant:normal;font-weight:normal;font-stretch:normal;font-size:10.09843922px;font-family:'Berthold Imago';-inkscape-font-specification:'Berthold Imago, Normal';font-variant-ligatures:normal;font-variant-caps:normal;font-variant-numeric:normal;font-feature-settings:normal;text-align:center;writing-mode:lr-tb;text-anchor:middle;fill:#000000;stroke-width:0.08415356">Tone</text>
  <text
     xml:space="preserve"
     x="504.49585"
     y="562.7879"
     font-style="normal"
     font-weight="normal"
     font-size="120"
     id="text194"
     style="font-style:normal;font-variant:normal;font-weight:normal;font-stretch:normal;font-size:10.09843922px;font-family:'Berthold Imago';-inkscape-font-specification:'Berthold Imago, Normal';font-variant-ligatures:normal;font-variant-caps:normal;font-variant-numeric:normal;font-feature-settings:normal;text-align:center;writing-mode:lr-tb;text-anchor:middle;fill:#000000;stroke-width:0.08415356">Rate</text>
  <text
     xml:space="preserve"
     x="568.87335"
     y="570.36169"
     font-style="normal"
     font-weight="normal"
     font-size="120"
     id="text196"
     style="font-style:normal;font-weight:normal;font-size:10.09842682px;font-family:Helvetica;text-anchor:middle;fill:#000000;stroke-width:0.08415356">Internal</text>
  <text
     xml:space="preserve"
     x="568.87335"
     y="585.50934"
     font-style="normal"
     font-weight="normal"
     font-size="120"
     id="text198"
     style="font-style:normal;font-weight:normal;font-size:10.09842682px;font-family:Helvetica;text-anchor:middle;fill:#000000;stroke-width:0.08415356">Clock</text>
  <text
     xml:space="preserve"
     x="568.87335"
     y="630.95227"
     font-style="normal"
     font-weight="normal"
     font-size="120"
     id="text200"
     style="font-style:normal;font-weight:normal;font-size:10.09842682px;font-family:Helvetica;text-anchor:middle;fill:#000000;stroke-width:0.08415356">Fuzz</text>
  <text
     xml:space="preserve"
     x="584.021"
     y="530.49042"
     font-style="normal"
     font-weight="normal"
     font-size="120"
     id="text202"
     style="font-style:normal;font-variant:normal;font-weight:normal;font-stretch:normal;font-size:10.09843922px;font-family:'Berthold Imago';-inkscape-font-specification:'Berthold Imago, Normal';font-variant-ligatures:normal;font-variant-caps:normal;font-variant-numeric:normal;font-feature-settings:normal;text-align:end;writing-mode:lr-tb;text-anchor:end;fill:#000000;stroke-width:0.08415356">Ext Clk</text>
  <text
     xml:space="preserve"
     x="667.93677"
     y="583.42944"
     font-style="normal"
     font-weight="normal"
     font-size="120"
     id="text204"
     style="font-style:normal;font-variant:normal;font-weight:normal;font-stretch:normal;font-size:10.09843922px;font-family:'Berthold Imago';-inkscape-font-specification:'Berthold Imago, Normal';font-variant-ligatures:normal;font-variant-caps:normal;font-variant-numeric:normal;font-feature-settings:normal;text-align:center;writing-mode:lr-tb;text-anchor:middle;fill:#000000;stroke-width:0.08415356">Int Clk</text>
  <circle
     cx="640.82465"
     cy="668.82141"
     r="7.5738206"
     id="circle206"
     style="fill:#ffffff;stroke:#000000;stroke-width:0.6732285px" />
  <circle
     cx="622.31085"
     cy="627.16541"
     r="7.5738206"
     id="circle208"
     style="fill:#ffffff;stroke:#000000;stroke-width:0.6732285px" />
  <circle
     cx="504.49585"
     cy="615.80463"
     r="7.5738206"
     id="circle210"
     style="fill:#ffffff;stroke:#000000;stroke-width:0.6732285px" />
  <circle
     cx="504.49585"
     cy="574.5694"
     r="7.5738206"
     id="circle212"
     style="fill:#ffffff;stroke:#000000;stroke-width:0.6732285px" />
  <polyline
     transform="matrix(0.08415356,0,0,0.08415356,394.67546,479.47588)"
     points=" 2835,2340 3015,2160"
     id="polyline214"
     style="fill:none;stroke:#000000;stroke-width:8px" />
  <polyline
     transform="matrix(0.08415356,0,0,0.08415356,394.67546,479.47588)"
     points=" 2610,1845 2790,1665"
     id="polyline216"
     style="fill:none;stroke:#000000;stroke-width:8px" />
  <polyline
     transform="matrix(0.08415356,0,0,0.08415356,394.67546,479.47588)"
     points=" 1215,1710 1395,1530"
     id="polyline218"
     style="fill:none;stroke:#000000;stroke-width:8px" />
  <polyline
     transform="matrix(0.08415356,0,0,0.08415356,394.67546,479.47588)"
     points=" 1215,1215 1395,1035"
     id="polyline220"
     style="fill:none;stroke:#000000;stroke-width:8px" />
</svg>
